<?xml version="1.0" encoding="UTF-8"?>
<svg width="200" height="200" viewBox="0 0 200 200" fill="none" xmlns="http://www.w3.org/2000/svg">
  <!-- Background Circle with Gradient -->
  <defs>
    <linearGradient id="pau-gradient" x1="0%" y1="0%" x2="100%" y2="100%">
      <stop offset="0%" style="stop-color:#2e3f6f;stop-opacity:1" />
      <stop offset="100%" style="stop-color:#4a5a8a;stop-opacity:1" />
    </linearGradient>
    <linearGradient id="light-gradient" x1="0%" y1="0%" x2="100%" y2="100%">
      <stop offset="0%" style="stop-color:#ffffff;stop-opacity:0.9" />
      <stop offset="100%" style="stop-color:#e6f2ff;stop-opacity:0.9" />
    </linearGradient>
  </defs>
  
  <!-- Main Circle - White Background -->
  <circle cx="100" cy="100" r="95" fill="#ffffff" stroke="#2e3f6f" stroke-width="3" />
  
  <!-- Open Book Base -->
  <g transform="translate(100, 115)">
    <!-- Left page -->
    <path d="M -45 -30 Q -45 -40, -35 -45 L -5 -50 L -5 30 L -35 25 Q -45 20, -45 10 Z" fill="url(#pau-gradient)" stroke="#2e3f6f" stroke-width="2" />
    <!-- Right page -->
    <path d="M 45 -30 Q 45 -40, 35 -45 L 5 -50 L 5 30 L 35 25 Q 45 20, 45 10 Z" fill="url(#pau-gradient)" stroke="#2e3f6f" stroke-width="2" />
    <!-- Book spine shadow -->
    <rect x="-2" y="-50" width="4" height="80" fill="#2e3f6f" opacity="0.5" />
    
    <!-- Page lines - left -->
    <line x1="-35" y1="-35" x2="-12" y2="-37" stroke="#ffffff" stroke-width="1.5" opacity="0.4" />
    <line x1="-35" y1="-25" x2="-12" y2="-27" stroke="#ffffff" stroke-width="1.5" opacity="0.4" />
    <line x1="-35" y1="-15" x2="-12" y2="-17" stroke="#ffffff" stroke-width="1.5" opacity="0.4" />
    <line x1="-35" y1="-5" x2="-12" y2="-7" stroke="#ffffff" stroke-width="1.5" opacity="0.4" />
    
    <!-- Page lines - right -->
    <line x1="35" y1="-35" x2="12" y2="-37" stroke="#ffffff" stroke-width="1.5" opacity="0.4" />
    <line x1="35" y1="-25" x2="12" y2="-27" stroke="#ffffff" stroke-width="1.5" opacity="0.4" />
    <line x1="35" y1="-15" x2="12" y2="-17" stroke="#ffffff" stroke-width="1.5" opacity="0.4" />
    <line x1="35" y1="-5" x2="12" y2="-7" stroke="#ffffff" stroke-width="1.5" opacity="0.4" />
  </g>
  
  <!-- Target/Achievement Symbol -->
  <g transform="translate(100, 60)">
    <circle cx="0" cy="0" r="22" fill="none" stroke="#2e3f6f" stroke-width="3" opacity="0.9" />
    <circle cx="0" cy="0" r="15" fill="none" stroke="#2e3f6f" stroke-width="3" opacity="0.9" />
    <circle cx="0" cy="0" r="8" fill="#2e3f6f" opacity="0.9" />
    <circle cx="0" cy="0" r="4" fill="#ffffff" />
  </g>
</svg>